<?xml version="1.0" encoding="utf-8"?>
<!-- Generator: Adobe Illustrator 15.1.0, SVG Export Plug-In . SVG Version: 6.00 Build 0)  -->
<!DOCTYPE svg PUBLIC "-//W3C//DTD SVG 1.1//EN" "http://www.w3.org/Graphics/SVG/1.1/DTD/svg11.dtd">
<svg version="1.1" id="Layer_1" xmlns="http://www.w3.org/2000/svg" xmlns:xlink="http://www.w3.org/1999/xlink" x="0px" y="0px"
	 width="29.309px" height="29.139px" viewBox="0 0 29.309 29.139" enable-background="new 0 0 29.309 29.139" xml:space="preserve">
<g>
	<defs>
		<rect id="SVGID_1_" y="0" width="29.309" height="29.139"/>
	</defs>
	<clipPath id="SVGID_2_">
		<use xlink:href="#SVGID_1_"  overflow="visible"/>
	</clipPath>
	<path clip-path="url(#SVGID_2_)" fill="#B7D7FF" d="M24.848,0.75H4.461c-2.05,0-3.711,1.662-3.711,3.711v16.115
		c0,2.05,1.661,3.711,3.711,3.711h7.386l2.807,4.102l2.808-4.102h7.386c2.05,0,3.711-1.661,3.711-3.711V4.461
		C28.559,2.412,26.897,0.75,24.848,0.75"/>
	
		<path clip-path="url(#SVGID_2_)" fill="none" stroke="#000000" stroke-width="1.5" stroke-linejoin="round" stroke-miterlimit="10" d="
		M24.848,0.75H4.461c-2.05,0-3.711,1.662-3.711,3.711v16.115c0,2.05,1.661,3.711,3.711,3.711h7.386l2.807,4.102l2.808-4.102h7.386
		c2.05,0,3.711-1.661,3.711-3.711V4.461C28.559,2.412,26.897,0.75,24.848,0.75z"/>
	
		<line clip-path="url(#SVGID_2_)" fill="none" stroke="#000000" stroke-width="1.5" stroke-miterlimit="10" x1="8.128" y1="9.443" x2="21.181" y2="9.443"/>
	
		<line clip-path="url(#SVGID_2_)" fill="none" stroke="#000000" stroke-width="1.5" stroke-miterlimit="10" x1="8.128" y1="15.595" x2="15.435" y2="15.595"/>
</g>
</svg>
