<?xml version="1.0" encoding="utf-8"?>
<!-- Generator: Adobe Illustrator 15.1.0, SVG Export Plug-In . SVG Version: 6.00 Build 0)  -->
<!DOCTYPE svg PUBLIC "-//W3C//DTD SVG 1.1//EN" "http://www.w3.org/Graphics/SVG/1.1/DTD/svg11.dtd">
<svg version="1.1" id="Layer_1" xmlns="http://www.w3.org/2000/svg" xmlns:xlink="http://www.w3.org/1999/xlink" x="0px" y="0px"
	 width="29.333px" height="26.889px" viewBox="0 0 29.333 26.889" enable-background="new 0 0 29.333 26.889" xml:space="preserve">
<g>
	<defs>
		<rect id="SVGID_1_" width="29.333" height="26.889"/>
	</defs>
	<clipPath id="SVGID_2_">
		<use xlink:href="#SVGID_1_"  overflow="visible"/>
	</clipPath>
	<path clip-path="url(#SVGID_2_)" fill="#0F7BFF" d="M0,0.031c0.021,8.943,0.007,17.888,0.007,26.833
		c3.35,0.019,6.703,0.014,10.051,0.003c0.051-4.436-0.061-8.873,0.059-13.307c1.1,1.535,2.102,3.138,3.224,4.657
		c1.875,2.912,3.998,5.664,5.8,8.621c3.373,0.089,6.746-0.003,10.12,0.052c0.036-0.42,0.072-0.839,0.072-1.26
		c-0.049-8.536,0.04-17.073-0.046-25.608c-3.337-0.026-6.67,0.007-10.005-0.013c-0.026,4.458,0.025,8.92-0.029,13.375
		c-3.099-4.409-6.027-8.948-9.199-13.301C6.711-0.069,3.35,0.037,0,0.031"/>
</g>
</svg>
