<?xml version="1.0" encoding="utf-8"?>
<!-- Generator: Adobe Illustrator 15.1.0, SVG Export Plug-In . SVG Version: 6.00 Build 0)  -->
<!DOCTYPE svg PUBLIC "-//W3C//DTD SVG 1.1//EN" "http://www.w3.org/Graphics/SVG/1.1/DTD/svg11.dtd">
<svg version="1.1" id="Layer_1" xmlns="http://www.w3.org/2000/svg" xmlns:xlink="http://www.w3.org/1999/xlink" x="0px" y="0px"
	 width="30.667px" height="37.693px" viewBox="0 0 30.667 37.693" enable-background="new 0 0 30.667 37.693" xml:space="preserve">
<g>
	<defs>
		<rect id="SVGID_1_" y="0" width="30.667" height="37.693"/>
	</defs>
	<clipPath id="SVGID_2_">
		<use xlink:href="#SVGID_1_"  overflow="visible"/>
	</clipPath>
	<path clip-path="url(#SVGID_2_)" fill="#0F7BFF" d="M25.613,20.045c-0.043-4.762,3.899-7.079,4.079-7.187
		c-2.231-3.255-5.692-3.7-6.908-3.735c-2.906-0.305-5.725,1.739-7.206,1.739c-1.51,0-3.791-1.709-6.246-1.658
		c-3.162,0.049-6.12,1.879-7.743,4.722c-3.348,5.796-0.851,14.314,2.356,18.999c1.605,2.295,3.48,4.857,5.933,4.767
		c2.401-0.101,3.298-1.531,6.196-1.531c2.871,0,3.714,1.531,6.217,1.473c2.575-0.042,4.199-2.304,5.748-4.619
		c1.854-2.631,2.598-5.222,2.628-5.354C30.606,27.641,25.663,25.754,25.613,20.045"/>
	<path clip-path="url(#SVGID_2_)" fill="#0F7BFF" d="M20.885,6.042C22.176,4.427,23.06,2.23,22.814,0
		c-1.869,0.083-4.207,1.292-5.553,2.873c-1.189,1.391-2.255,3.673-1.979,5.818C17.382,8.847,19.537,7.632,20.885,6.042"/>
</g>
</svg>
